<svg width="734" height="149" viewBox="0 0 734 149" fill="none" xmlns="http://www.w3.org/2000/svg">
<path fill-rule="evenodd" clip-rule="evenodd" d="M95.1957 88.2207L160.218 4.3246C163.507 0.0811759 169.62 -0.701635 173.876 2.57556C177.67 5.49641 178.771 10.736 176.472 14.9309L111.863 132.849C102.783 149.422 81.0746 154.093 65.9544 142.728L4.07717 96.2191C-0.0950766 93.083 -1.23075 87.3157 1.44226 82.838C4.07497 78.4279 9.57999 76.653 14.3018 78.6918L58.3152 97.6968C71.3347 103.319 86.5179 99.4174 95.1957 88.2207ZM69.971 84.0884C87.0217 82.5257 99.5771 67.4366 98.0144 50.386C96.4518 33.3354 81.3627 20.78 64.3121 22.3427C47.2615 23.9053 34.706 38.9944 36.2687 56.045C37.8314 73.0956 52.9204 85.651 69.971 84.0884Z" fill="url(#paint0_linear)"/>
<path d="M81.6262 50.1667C84.0474 49.1349 86.9534 50.2842 87.0675 52.9136C87.3105 58.5132 84.0843 63.9211 78.6067 66.1931C73.093 68.4801 66.9417 66.9078 63.1559 62.7185C61.4201 60.7977 62.6091 57.9687 65.006 56.9905C71.6356 54.2847 76.6832 52.2731 81.6262 50.1667Z" fill="#ECF9F6"/>
<path d="M229.858 129.27C236.004 129.27 240.787 127.971 244.208 125.374C247.658 122.748 249.383 119.026 249.383 114.207C249.383 111.581 248.89 109.489 247.905 107.931C246.919 106.344 245.556 105.06 243.817 104.079C242.106 103.098 240.135 102.203 237.903 101.395C236.54 100.904 235.105 100.371 233.598 99.7935C232.119 99.1876 230.858 98.495 229.814 97.7159C228.8 96.9368 228.292 96.0423 228.292 95.0323C228.292 93.9358 228.785 93.0268 229.771 92.3054C230.757 91.584 232.076 91.2233 233.728 91.2233C236.656 91.2233 240.005 92.4209 243.773 94.8159L248.339 86.289C242.831 83.6054 237.932 82.2636 233.641 82.2636C230.104 82.2636 226.973 82.8551 224.248 84.0382C221.552 85.2213 219.436 86.8661 217.899 88.9726C216.363 91.0502 215.595 93.4597 215.595 96.201C215.595 98.4806 216.102 100.356 217.117 101.828C218.16 103.271 219.508 104.468 221.161 105.42C222.813 106.373 224.538 107.224 226.336 107.974C229.467 109.273 231.771 110.297 233.25 111.047C234.728 111.769 235.468 112.981 235.468 114.683C235.468 116.213 234.946 117.396 233.902 118.232C232.887 119.04 231.539 119.444 229.858 119.444C225.741 119.444 221.77 117.424 217.943 113.385L212.333 122.301C216.334 126.947 222.175 129.27 229.858 129.27Z" fill="#2B5063"/>
<path d="M280.408 129.27C283.336 129.27 286.09 128.851 288.67 128.015C291.25 127.207 293.381 126.182 295.062 124.941L290.496 115.982C288.438 117.569 285.771 118.362 282.495 118.362C279.915 118.362 277.639 117.8 275.668 116.674C273.725 115.549 272.218 114.034 271.145 112.129C270.072 110.196 269.536 108.061 269.536 105.723C269.536 103.588 270.029 101.554 271.015 99.6204C272.029 97.6871 273.493 96.1144 275.407 94.9025C277.32 93.6905 279.654 93.0845 282.408 93.0845C285.684 93.0845 288.38 93.8781 290.496 95.4652L295.062 86.5054C293.439 85.2357 291.293 84.1969 288.626 83.389C285.988 82.581 283.234 82.177 280.364 82.177C276.798 82.177 273.508 82.8118 270.493 84.0815C267.478 85.3512 264.854 87.0825 262.622 89.2756C260.39 91.4686 258.65 93.9791 257.404 96.807C256.157 99.6348 255.534 102.621 255.534 105.767C255.534 109.056 256.186 112.129 257.49 114.986C258.795 117.814 260.592 120.296 262.883 122.431C265.173 124.566 267.811 126.24 270.797 127.452C273.812 128.664 277.016 129.27 280.408 129.27Z" fill="#2B5063"/>
<path d="M303.692 127.885H317.042V101.655C317.042 99.0866 317.898 96.9368 319.608 95.2054C321.318 93.4452 323.652 92.5651 326.609 92.5651C329.508 92.5651 331.784 93.4597 333.436 95.2487C335.118 97.0089 335.959 99.4761 335.959 102.65V127.885H349.309V99.8368C349.309 96.3164 348.57 93.2432 347.091 90.6174C345.613 87.9626 343.569 85.8994 340.96 84.4278C338.379 82.9273 335.379 82.177 331.958 82.177C328.885 82.177 326.058 82.7686 323.478 83.9516C320.898 85.1059 318.753 86.6208 317.042 88.4965V53.4365H303.692V127.885Z" fill="#2B5063"/>
<path d="M384.168 129.27C389.097 129.27 393.532 128.274 397.475 126.283C401.418 124.263 404.534 121.493 406.824 117.973C409.144 114.423 410.303 110.34 410.303 105.723C410.303 101.106 409.144 97.0378 406.824 93.5174C404.534 89.9681 401.418 87.1979 397.475 85.2069C393.532 83.187 389.097 82.177 384.168 82.177C379.269 82.177 374.833 83.187 370.861 85.2069C366.919 87.1979 363.788 89.9681 361.469 93.5174C359.178 97.0378 358.033 101.106 358.033 105.723C358.033 110.34 359.178 114.423 361.469 117.973C363.788 121.493 366.919 124.263 370.861 126.283C374.833 128.274 379.269 129.27 384.168 129.27ZM384.168 117.929C381.907 117.929 379.849 117.41 377.993 116.371C376.167 115.332 374.717 113.904 373.645 112.086C372.572 110.239 372.036 108.118 372.036 105.723C372.036 103.328 372.572 101.222 373.645 99.404C374.717 97.5572 376.167 96.1144 377.993 95.0756C379.849 94.0368 381.907 93.5174 384.168 93.5174C386.458 93.5174 388.517 94.0368 390.343 95.0756C392.199 96.1144 393.663 97.5572 394.735 99.404C395.837 101.222 396.388 103.328 396.388 105.723C396.388 108.118 395.837 110.239 394.735 112.086C393.663 113.904 392.199 115.332 390.343 116.371C388.517 117.41 386.458 117.929 384.168 117.929Z" fill="#2B5063"/>
<path d="M442.127 129.27C447.055 129.27 451.491 128.274 455.433 126.283C459.376 124.263 462.493 121.493 464.783 117.973C467.102 114.423 468.262 110.34 468.262 105.723C468.262 101.106 467.102 97.0378 464.783 93.5174C462.493 89.9681 459.376 87.1979 455.433 85.2069C451.491 83.187 447.055 82.177 442.127 82.177C437.227 82.177 432.792 83.187 428.82 85.2069C424.877 87.1979 421.746 89.9681 419.427 93.5174C417.137 97.0378 415.992 101.106 415.992 105.723C415.992 110.34 417.137 114.423 419.427 117.973C421.746 121.493 424.877 124.263 428.82 126.283C432.792 128.274 437.227 129.27 442.127 129.27ZM442.127 117.929C439.865 117.929 437.807 117.41 435.952 116.371C434.125 115.332 432.676 113.904 431.603 112.086C430.53 110.239 429.994 108.118 429.994 105.723C429.994 103.328 430.53 101.222 431.603 99.404C432.676 97.5572 434.125 96.1144 435.952 95.0756C437.807 94.0368 439.865 93.5174 442.127 93.5174C444.417 93.5174 446.475 94.0368 448.302 95.0756C450.157 96.1144 451.621 97.5572 452.694 99.404C453.795 101.222 454.346 103.328 454.346 105.723C454.346 108.118 453.795 110.239 452.694 112.086C451.621 113.904 450.157 115.332 448.302 116.371C446.475 117.41 444.417 117.929 442.127 117.929Z" fill="#2B5063"/>
<path d="M477.738 127.885H491.088V53.4365H477.738V127.885Z" fill="#2B5063"/>
<path d="M520.327 127.885H529.242L540.374 102.304L551.507 127.885H560.465L583.86 83.5621H568.597L556.421 110.182L544.94 83.5621H535.852L524.371 110.182L512.195 83.5621H496.932L520.327 127.885Z" fill="#2B5063"/>
<path d="M610.899 129.27C615.828 129.27 620.263 128.274 624.206 126.283C628.149 124.263 631.265 121.493 633.556 117.973C635.875 114.423 637.034 110.34 637.034 105.723C637.034 101.106 635.875 97.0378 633.556 93.5174C631.265 89.9681 628.149 87.1979 624.206 85.2069C620.263 83.187 615.828 82.177 610.899 82.177C606 82.177 601.565 83.187 597.593 85.2069C593.65 87.1979 590.519 89.9681 588.2 93.5174C585.91 97.0378 584.764 101.106 584.764 105.723C584.764 110.34 585.91 114.423 588.2 117.973C590.519 121.493 593.65 124.263 597.593 126.283C601.565 128.274 606 129.27 610.899 129.27ZM610.899 117.929C608.638 117.929 606.58 117.41 604.724 116.371C602.898 115.332 601.449 113.904 600.376 112.086C599.303 110.239 598.767 108.118 598.767 105.723C598.767 103.328 599.303 101.222 600.376 99.404C601.449 97.5572 602.898 96.1144 604.724 95.0756C606.58 94.0368 608.638 93.5174 610.899 93.5174C613.19 93.5174 615.248 94.0368 617.074 95.0756C618.93 96.1144 620.394 97.5572 621.467 99.404C622.568 101.222 623.119 103.328 623.119 105.723C623.119 108.118 622.568 110.239 621.467 112.086C620.394 113.904 618.93 115.332 617.074 116.371C615.248 117.41 613.19 117.929 610.899 117.929Z" fill="#2B5063"/>
<path d="M646.51 127.885H659.86V103.126C659.86 101.482 660.339 99.9522 661.296 98.5383C662.281 97.0955 663.542 95.9268 665.079 95.0323C666.644 94.1378 668.297 93.6905 670.036 93.6905C672.558 93.6905 674.936 94.4119 677.168 95.8547L682.734 84.6442C681.574 83.9228 680.154 83.3312 678.472 82.8695C676.82 82.4079 675.211 82.177 673.645 82.177C670.891 82.177 668.311 82.8551 665.905 84.2113C663.528 85.5387 661.513 87.4432 659.86 89.9248V83.5621H646.51V127.885Z" fill="#2B5063"/>
<path d="M679.729 127.885H695.732L706.865 113.861L717.997 127.885H734L714.997 104.728L731.304 83.5621H715.823L706.865 95.4652L697.906 83.5621H682.426L698.733 104.728L679.729 127.885Z" fill="#2B5063"/>
<path d="M212.333 49.9721H217.73V31.4674C217.73 30.4226 218.064 29.4235 218.731 28.4704C219.417 27.5172 220.335 26.7473 221.485 26.1607C222.654 25.5558 223.952 25.2534 225.38 25.2534C227.42 25.2534 229.052 25.9133 230.276 27.2331C231.5 28.5528 232.112 30.3217 232.112 32.5397V49.9721H237.508V31.6599C237.508 30.5784 237.833 29.5519 238.482 28.5803C239.149 27.5905 240.049 26.7931 241.18 26.1882C242.33 25.565 243.619 25.2534 245.047 25.2534C247.105 25.2534 248.756 25.9408 249.998 27.3155C251.241 28.6903 251.862 30.5509 251.862 32.8972V49.9721H257.259V31.4124C257.259 28.0946 256.266 25.5191 254.282 23.6861C252.298 21.853 249.785 20.9365 246.744 20.9365C244.5 20.9365 242.543 21.4498 240.874 22.4763C239.205 23.5028 237.777 24.9142 236.59 26.7106C235.904 24.9326 234.689 23.5303 232.946 22.5038C231.203 21.4589 229.181 20.9365 226.882 20.9365C223.21 20.9365 220.159 22.4396 217.73 25.4458V21.8164H212.333V49.9721Z" fill="#5A7B8B"/>
<path d="M267.24 64.2699H273.36L293.583 21.8164H287.436L278.005 43.1256L267.49 21.8164H261.343L274.89 48.4323L267.24 64.2699Z" fill="#5A7B8B"/>
<defs>
<linearGradient id="paint0_linear" x1="88.9055" y1="147.89" x2="88.9055" y2="0.353248" gradientUnits="userSpaceOnUse">
<stop stop-color="#36BB96"/>
<stop offset="1" stop-color="#41C6A1"/>
</linearGradient>
</defs>
</svg>
